<?xml version="1.0" encoding="UTF-8"?>
<svg id="Livello_1" xmlns="http://www.w3.org/2000/svg" viewBox="0 0 782.26 1343.18">
  <path d="M192.92,19.8c.09.59-.14,1.04.08,1.65.37.99,1.93,1.92,2.65,2.63,1.15,1.14,2.47,2.34,3.76,3.37.7.55,1.99,1.55,2.75,1.82.99.35,1.75-.07,2.63.6.77.59,1.04,1.76,1.51,2.57.94,1.61,1.7,3.51,2.86,4.94.8.99,2.16,1.52,2.81,2.57,1.03,1.64.52,4.64.92,6.55.52,2.48,1.11,5.48,2.13,7.81,4.7,10.69,7.21,22.49,7.17,34.2-.01,4.07-.33,7.87-1.22,11.81-.73,3.23-1.02,6.56-1.76,9.85-.8,3.54-1.58,7.11-2.09,10.72-.26,1.86.15,3.55-.6,5.26-.98,2.23-.91,4.3-.84,6.76.05,1.89.71,3.43,1.48,5.16.7,1.55,1.03,1.55,2.46,2.12,1.43.57,1.4,1.16,3.16,1.2,2,.04,4.1.17,6.07-.14,3.97-.62,7.83,1.95,11.66-.31,1.12-.66,1.93-1.52,3.23-1.85,5.38-1.37,10.57,4.47,14.86-1.58,1.74,4.25,4.5,2.81,6.76,2.44,2.42-.36,3.39,7.9,6.24,2.39,2.53-4.88,3.7,4.75,6.01,1.23,3.32,4.41,7.57-2.02,10.89,2.39,2.87-4.46,5.51,5.28,7.93.71,4.23-7.93,6.33,1.81,9.47,2.54.84.19,1.4,3.49,2.33,6.01,1.98-4.86,3.41-8.34,4.2-10.26,3.1.87,5.31,1.84,7.55,2.02,3.89.28,7.8.1,11.69.1h12.75c3.89,0,7.8.24,11.69-.05,3.82-.29,7.69-1.52,11.44-1.52s7.5.97,11.23,1.65c2.69.47,6.42-.31,7.8,2.18,2.82,5.09,4.18-3.73,7.05-.29,2.48,2.96,7.45,4.96,9.76,2.91,4.43-3.96,6.67,4.62,10.56,2.34,2.49-1.47,5.6-.26,8.43-.26s5.7.34,8.5-.08c2.85-.42,6.33-3.63,8.3-1.92,2.82,2.44,5.35,1.66,8.02,1.92,1.65.16,3.93.34,4.9-1.18,3.64-5.77,6.26-.13,9.9,1.63v-.04c3.02-5.96,6.61-10.6,11.74-3.83.84,1.1,2.74.26,4.16.13,2.75-.24,6.17.92,8.11-1.26,3.16-3.52,4.41,3.23,7.21,1.6,2.51-1.46,5.6-.26,8.43-.31,2.65-.05,5.47.84,7.53-3.04,2.64,4.69,5.31,4.85,8,.1,4.84,7.04,8.41.11,12.41-2.75,5.4-3.86,9.72-5.07,18.33-4.36,9.29.77,18.56,2,27.8,3.52,2.64.47,5.15,7.01,7.91,0,.13-.35,1.87.6,2.71,1.36,3.52,3.26,7.23,4.67,11.3,5.88,4.25,1.26,8.07.84,12.12-.34.72-.21,1.62,1.15,2.64,1.94-.84,2.76-1.51,4.93-2.26,7.4,6.26,3.1,2.71-6.4,4.16-8.16,3.16-2.29,5.83-4.23,9.06-6.59-.95-7.08-2.15-13.88-2.74-20.78-.79-9.5-1.85-16.5-3.77-20.65,1.26-3.17,3.93-7.37,3.41-9.26-.84-2.96-1.04-6.53-1.97-8.84-2.6-6.45-2.62-11.96.54-16.95-1.56-3.78-4.14-7.37-3.73-9.47,2.94-14.9.29-29.81,1.56-45.13-4.14,0-7.39.76-10.4-.26-2.42-.81-4.32-1.13-6.85-.5-1.9.47-4.27-.26-6.71.37-4.45,1.13-9.24,1.13-13.67-.21-7.92-2.39-7.85-2.91-16.55,0-.91.32-2.17.45-2.83-.31-6.42-7.37-11.19,1.97-17.86,3.49-.59-1.31-1.81-4.04-3.14-7.03-2.74,2.44-6.15,3.59-7.01,6.61-1.47,5.2-2.92,7.56-6.6,8.24-3.05.55-5.78,6.35-9.15.58-.49-.84-1.9-.76-2.8-.47-12.25,4.04-13.13,4.04-23.17-.47-2.87-1.28-5.74-2.78-8.68-3.33-6.08-1.13-12.48,2.17-18.29-3.44-.7-.68-2.53-.45-2.94.42-1.86,4.01-4.43,3.02-6.76,2.78-6.24-.63-12.14.81-17.77,5.38-1.42,1.16-4.25,2.28-4.77,1.26-3.8-7.45-8.09-.91-11.98-1.15-4.75-.29-9.92,4.93-14.31,3.36-9.76-3.46-20.05-2.28-29.45-8.63-3.78,5.59-6.08-4.04-8.82-2.49-3.46,1.94-5.92-2.7-9.2-1.47-3.01,1.13-6.36.58-9.52.13-3.55-.52-6.58,1.31-9.81,3.23-2.14,1.26-5.24,1.28-7.23-.29-5.7-4.52-10.99-4.49-16.64-.16-1.33,1.03-3.78,1.05-4.86-.26-3.88-4.67-9.06-4.27-11.93-1.86-4.25,3.59-8.11,2.36-12.09,2.57-6.46.32-12.92.29-19.38.19-5.62-.09-11.04-.73-16.66-.73-3.02,0-5.63.34-8.57.81-3.48.55-7.37.9-10.95.55-5.11-.5-9.91-3.2-14.12-6.03-5.09-3.43-13.26-1.92-19.05-1.96-1.03,0-3.07-.28-3.79.8-.45.68-.09,3.05.05,3.69.14.64.42,1.16.52,1.81Z"/>
  <path d="M34.69,686.66c1.59.25,3.3.97,4.57,2.18,3.39,3.26,6.79,3.24,10.79,1.27,2.36-1.16,6.06-2.44,7.35-.88,5.2,6.33,11.73,2.25,16.35.6,7.27-2.6,13.77-1.26,20.47-.55,2.95.3,6.21,1.38,8.83,2.93,2.84,1.66,3.37-1.32,2.81-2.26-3.54-5.88-.55-11.29,1.92-15.27,2.61-4.19,3.35-8.38,3.83-13.13.72-7.36.6-15.12,2.51-21.96,2.23-7.98-4.22-14.81.29-22.1,4-6.46,1.77-14.37,4.07-20.8,2.34-6.57-5.28-13.03,1.38-18.93-3.7-6.61,1.05-14.53-.38-20.85-1.64-7.28,1.84-12.79,2.26-19.15.32-4.92.69-9.88,1.57-14.68.85-4.52-.06-9.22,2.82-13.84,1.46-2.36-.41-8.24-.12-12.53.55-7.98.2-16.82,2.74-23.68,3.01-8.15-.5-15.49,1.9-22.96.73-2.19.3-4.98.88-7.29,6.07-24.34,6.26-26.75,5.12-48.48-.23-4.14-.14-9.22,1.37-12.64,2.1-4.74-4.1-8.22.34-12.29-2.46-5.6,2.34-9.6,2.39-14.88.09-6.7,1.26-13.48,1.94-20.21.19-1.83-.1-4.55.66-5.36,3.79-4.07,5.28-11.5,3.74-14.51-3.5-6.84,3.8-9.99,2.12-15.82-1.12-3.97-2.15-9.17,1.22-13.37-2.98-3.07-.13-7.33-.28-10.92-.16-4.57,1.68-9.55,2.92-14.23.83-3.14,3.63-7.55,3-8.84-2.16-4.4.06-6.66.85-10.58,1.99-10,6.28-19.5,7.13-29.73.39-4.77-1.04-9.37-.75-14.06.11-1.69.47-3.35.51-5.05.06-2.41-.19-4.88.76-7.17,2.01-4.85,3.35-10.32,4.82-15.49.79-2.8.54-5.68.54-8.56,0-1.6.49-4.07.04-5.58-.46-1.53-3.91-3.83-5.25-3.78-.69.03-1.84.66-2.53.85-1.1.31-2.37.48-3.51.74-3.32.75-6.32,1.74-9.49,2.96-2.73,1.05-5.27,1.51-8.1,2.06-3.9.75-8.49.16-12.41.16-4.33,0-8.67-.02-13,0-4.14.02-7.72-2.16-11.78-2.2-1.61-.02-2.88-.57-4.42-.8s-3.29.04-4.86.04c-4.7,0-8.89.52-13.21-1.15-3.02-1.17-6.26-2.22-9.42-2.99-1.43-.35-3.01-1.12-4.53-1.04-1.94.11-1.95.55-2.66,1.94l-.02-.02c-.1.19-.22.41-.35.64-.72,1.26-2.34,2.53-2.87,3.8-.48,1.16-.1,2.42-.43,3.62-.37,1.34-.81,2.06-.79,3.78.04,3.43-.43,6.9-1.54,10.14-1.01,2.95-.55,4.03.37,6.95,1.42,4.54-4.15,7.17-2.94,11.03,2.21,7.03-.36,13.85-2.53,18.78-1.99,4.52-3.03,8.56-3.56,13.25-.84,7.35-1.22,14.78-2.41,22.03-1.03,6.24-4.93,13.19-4,18.23,1.39,7.54-2.76,12.67-2.66,19.25.04,3.52-4,8.42-3.28,10.84,3.59,12.03-1.26,23.86-1.33,35.69-.03,3.03-.97,6.19-.85,9.18,1.09,23.95-.81,36.53-5.84,59.55-1.75,7.94-4.07,15.77-5.4,23.84-1.22,7.25-1.63,14.67-2.38,22.03-.78,7.36.29,16.95-2.7,21.54-4.97,7.61-.34,13.14-1.33,19.56-2.06,13.34-3.44,26.89-4.24,40.39-.7,11.71-1.3,23.77.14,34.98.73,5.68,1.17,11.98-.5,15.56-4.72,10.15-3.98,21.01-5.53,31.54-1.08,7.3-2.75,15.04-2.03,21.95.81,7.65,2.34,14.41-2.46,20.93,3.91,6.2-4.08,12.02-1.58,16.99,3.44,6.84-2.44,12.53-1.69,18.87,6.82.72,12.96,1.34,19.08,1.96,5.39,9.99,10.35-2.8,15.54-2.02Z"/>
  <path d="M145.38,861.98c-.36-2.18-1.97-5.18-4-6.9-2.43-2.04-4.57-2.87-6.87,0-2.49-2.73-4.86,1.16-7.46.22-2.04-.74-4.42-.65-6.52-.03-2.15.63-3.87-1.24-6.1-.92-1.75.27-3.68,2.13-5.54.76-2.06-1.51-4.05-3.2-6.12-.11-3.32-3.95-5.81-1.17-8.02,2.04-2.12-.81-3.77-3.99-5.98-.81-.35.52-1.73.48-2.14-.04-1.56-1.99-4.03-1.8-4.79-.76-1.91,2.59-2.94,0-4.37-.11-2.23-.18-4.19-3.3-6.93-.49-1.42,1.44-4.27.02-6.44.31-2.25.31-4.46,1.17-6.7,1.72-.63.15-1.65.39-1.9-.06-1.71-3.02-4.05-1.41-6.09-1.72-5.05-.78-10.12-1.41-15.17-2.1-1.3-3.39-2.32,1.4-3.58.22-1.38-1.26-2.69-3.08-4.19-3.49-1.81-.48-3.81.1-5.7.53-1.81.42-3.57,1.22-5.46,1.89,0,.87.15,1.82-.03,2.63-.86,3.76-3.25,6.81-2.62,11.23-2.64,4.05-.73,8.08-.04,12.14.14.85.29,2.16-.03,2.66-2.02,3.08-1,6.78-1.32,10.2-.1,1.08-.63,2.06-1.18,3.77,1.43,1.29,3.41,2.43,4.73,4.45,1.32,2.01,1.88,4.94,2.9,7.36.42,1.02,1.2,1.73,1.82,2.6,1.84,2.59,3.69,5.18,5.44,7.63h0c3.49.43,6.76-.09,10.19,1.62,3.23,1.62,7.08-.45,10.62,1.93,1.59,1.07,3.88.16,5.85.2,1.72.03,4.24-.82,5.04.41,2.17,3.36,3.4-.79,5.05-.41,1.94.43,4.24,1.96,5.79,1.06,4.25-2.46,9.02-1.47,13.12-4.56.69-.53,2.16.1,2.94.84,1.08,1.02,1.74,1.02,2.79-.04,1.21-1.24,2.4,2.38,4.23-.06,1.07-1.43,3.66-.78,5.58-.81,5.26-.07,10.53.03,15.79-.01,5.28-.05,10.67,1.03,15.51-3.14.18-.16.62.42.91.36,1.04-.21,2.3-.13,3.07-.91,1.59-1.6,2.08,3.16,3.84.85.73-.97,2.42-.54,3.67-.76,4.36-.76,8.06-3.21,10.5-8.44.75-1.62.71-4.74,1.62-5.26,3.39-1.97,2.55-4.63,1.75-8.27-.84-3.82-1.23-7.78-3.3-10.85.4-6.9-3.11-12.19-4.16-18.57Z"/>
  <path d="M761.89,1078.24c.29-3.29.74-7.73-.05-9.86-3.28-8.78-2.1-18.67-2.34-28.22-.08-3.24-.06-6.57-.45-9.66-1.4-10.52-3.26-20.8-4.36-31.43-1.05-10.2.45-20.64-1.31-31.46-1.71-10.52-1.08-22.73-1.08-34.21-.02-4.87,1.32-9.78,1.29-14.65-.06-6.26-.29-13.07-1.5-18.71-1.76-8.31-1.68-15.26,0-23.73,1.36-6.72,1.05-14.84,1.57-24-.87-1.43-2.39-4.06-3.94-6.65.82-1.7,1.89-2.82,1.92-4.06.31-13.22,1-26.52.55-39.66-.44-12.95,6.62-25.62.24-38.65-.29-.58.08-3.48.55-4.33,2.23-4.02,2.12-7,.47-12.45-2.17-7.15-3.77-15.15-3.67-24.58.11-9.24-1.34-18.51-1.86-27.83-.08-1.47,1.22-3.24,2.95-7.43-4.36.96-7.85-.08-10.24,2.76-3.99,4.72-8.81,4.99-11.49,1.51-3.65-4.72-6.93-3.32-10.39-3.71-4.9-.54-9.86.38-14.77-.39-2.57-.43-5.09-4.53-7.61-4.45-2.97.11-6.09,5.02-8.79,3.98-2.1-.82-3.07-3.6-5.59.15-2.13,3.13-5.15-.43-7.64-4.02-.73-1.01-5.58,5.49-5.4,6.84,1.81,13.92-7.27,27.33-.45,41.4.81,1.7.1,6.46.1,9.82-.03,28.45.02,56.9-.16,85.35-.03,5.14-.95,10.24-1.47,15.38,8.42,3.87,8.87,4.68,8.87,21.07,0,9.71,1.18,20.22-4.15,26.79-.68.85-.76,4.45-.76,6.73.16,16.97-.26,33.74,2.1,50.79,2.36,17.05-2.05,36.1,2.23,53.38-2.72,7.11,1.68,13.56.45,20.56,6.01,7-.81,13.95-.05,20.95.18,1.58-.19,4.32.18,4.75,4.83,5.64-.23,18.44,4.28,24.12-1.13,8.19-1.37,14.72,2.57,21.72,1.6,2.86-.29,13.83-.58,21.14-6.3.23-3.67,9.97-4.04,16.23-1.02,17.63-.42,36.37-3.33,52.53-2.15,11.87,1.23,10.75,3.57,12.06,2.67,1.47,5.82-.61,8.47.97,9.32,5.56,9.27,5.6,19.21.23,1.02-.54,2.57-.81,3.25.35,4.33,7.39,9.37,2.59,14.04,3.83,11.28,3.01,21.17-12.37,32.48-10.67,1.12.16,5.16-5.25,2.96-13.37-4.2-15.5-.68-32.5-1.76-48.66,4.33-6.11,1.78-15.27,2.49-23,.79-8.54,1.73-17.01,2.44-25.55ZM736.84,983.31h0c-.92-1.16-1.89-1.89-1.89-2.47.08-2.2.47-4.37.76-6.57.55.61,1.55,1.19,1.55,1.89.08,2.2-.24,4.44-.42,7.15Z"/>
  <path d="M750.92,686.65h-.04s0,.01-.01.02c.03,0,.07-.01.1-.02h-.05Z"/>
  <path d="M782.26,1287.75c-9.51-5.23.45-15.49-5.56-21.58-4.08-4.17-6.83-9.77-12.52-12.19-9.94-4.26-13.91-9.02-9.63-18.72,2.09-4.77.15-10.4-1.84-14.98-1.09-2.48-5.72-5.13-9.35-5.1-9.39.13-19.45.43-28.52,3.03-20.44,5.83-51.61,12.91-71.85,13.77-17.67.72-33.79,6.08-48.89,8.98-14.33-6.85-24.01-17.78-45.57-12.61-21.6-6-45.94,1.79-68.74,1.79-15.13-.03-30.32.08-46.86.16-2.92,3.13-6.7,7.13-10.12,10.73-9.67,1.33-14.05-1.21-15.7-7.09-1.16-4.15-5-11.53-5.66-11.32-12.43,3.63-11.89-7.47-22.97-7.64-17.52-.24-33.3-6.62-50.35-9.39-8.57-1.38,1.43-5.77-2.37-8.33-12.81-8.62-23.64-18.74-39.65-24.8-6.67-2.51-10.72-7-16.12-11.25-1.85-1.46-3.95-3.15-6.14-4.03-1.56-.63-3.24.04-4.85-.17-2-.25-2.86-1.5-4.63-2.35-2.27-1.09-4.07-1.56-6.16-3.09-1.6-1.17-2.21-2.83-3.5-4.19-2.03-2.13-5.67-3.15-8.22-4.45-5.45-2.77-10.89-5.59-16.19-8.64-2.27-1.31-3.13-4.11-3.82-6.44-1.89-6.29-3.39-12.64-5.03-19-1.62-.01-3.25-.07-4.87-.08,1.3-1.24,2.59-2.48,3.89-3.72l-.02-.03c1.46-3.74-11.76-2.45-3.55-8.37-3.46-.92-6.95-2.95-10.37-2.46-3.93.58-7.91,3.25-11.66,5.25-17.94,9.46-22.58,16.18-14.38,28.32,2.98,4.45.39,9.52,2.89,12.11,6.19,6.43-5.64,16.04,1.27,22.78,1.62,1.59,4.12,2.24,5.45,4.12,1.88,2.67,1.09,7.07.93,10.12-.27,5.25,1.32,10.16.72,15.41-.31,2.73-1.49,4.11-1.45,7.08.08,5.62.27,11.37.05,16.99-.13,3.27-1.04,8.91-2.13,12.01-.95,2.73-3.21,5.05-3.67,7.94-.22,1.38.38,2.88.14,4.26-.27,1.58-1.29,2.68-1.57,4.26-.36,2.07-.37,6.38.32,8.28,5.11-.12,2.01,10.81,2.89,14.16.67,2.53,2.87,3.1,3.73,4.87.69,1.42.37,3.81.28,5.37-.16,2.55-1.34,4.51-1.51,7.07-.24,3.61.05,7.35.05,10.97,0,9.37.07,18.16-1.94,27.26-1.5,6.81,6.01,11.26,11.28,13.3,4.48,1.74,9.34,1.6,13.66.44s9.29.83,13.56-.44c1.8-.53,3.05-1.92,4.16-2.91.83-.74.57-1.36,2.06-1.87,1.57-.54,3.57-.21,5.19-.21,4.6.02,9.19-.02,13.79.02,4.2.03,8.09-.93,12.21-1.06,2.46-.07,4.94-.02,7.39.02,6.38.1,11.83-1.7,17.86-3.42,5.09-1.45,10.16-2.88,15.51-2.83,7.28.06,14.47-.12,21.66-1.02,4.13-.51,7.74-3.51,11.37-5.51,4.7-2.59,9.21-4.63,14.34-6.23,10.31-3.22,21.7-1.8,32.44-1.8,7.3,0,15-.68,22.05.81,5.67,1.21,10.85.32,16.24-1.15,5.48-1.49,12.2,1.33,17.47,2.72,10.44,2.75,20.66,3.91,32.89.33,8.22-2.42,31.65-.85,39.61,2.36,15.32,6.16,31.9,9.01,51.24,6.57,4.13-.5,8.52.01,12.33.84,8.03,1.73,15.3,5.03,23.68,5.68,7.33.58,15.34-5.94,23.77-3.36,2,.61,6.32-1.06,9.07-2.42,16.36-7.93,30.27-10,40.12-2.09,4.19,3.37,7.79,2.87,12.12,3.31,6.31.62,17.39-.81,18.36,1.4,3.76,8.7,13.13-1.27,18.31,1.76,6.12,3.56,21.24-11.95,30.23-6.15,3.99,2.55,14.78.03,22.5-1.01,4.25-.57,9.01-2.32,12.64-4.42,2.38-1.39,4.8-6.24,4.31-6.42-14-5.72-3.76-13.19,1.9-20.31Z"/>
  <path d="M35.31,102.94c3.59,1.36,7.22,3.8,10.18,6.9,7.01,7.32,13.62,15.35,20.81,23.56h0c1.93-.61,3.52-1.7,5.04-1.49,8.16,1.19,15.9,5.62,24.32,5.2,10.26-.5,20.52-.08,30.78-.08,1.49,5.64,4.67-.69,7.29,1.99,2.18,2.2,6.17,1.21,9.34,1.39,3.28.18,6.61.5,9.84-.08,3-.52,6.01-3.43,8.82-2.96,4.57.76,6.64-3.13,9.21-6.59,4.12,4.62,5.44-1.78,7.85-3.8,2.42,3.96,6.96,5.9,8.06,1.65,2.63-10.2,13.67-14.01,10.84-27.86,6.35-15.64-2.33-46.44-11.33-59.22-1.95-2.75-5.3-2.12-6.17-3.62-2.63-4.46-6.46,1.81-8.4-2.73-4.65-10.84-13.54-13.1-20.81-16.69-5.56-2.76-10.58-9.97-17.45-7.69-6.14,2.02-11.94-1.63-16.95-4.96-5.2-3.44-11.34,1.49-15.8-5.12-.76-1.13-3.39-.84-4.75,0-2.36,1.44-4.04,1.6-6.74.31-2.36-1.12-7.11,3.99-8.42,2.47-2.57-3.02-4.67.68-6.43-.89-3.18-2.88-5.57,1.21-8.19,1.76-7.14,1.55-14.51,3.78-19.73,11.99-.87,1.39-2.57,2.08-.79,4.91,3.49,5.43-1.03,6.77-2.68,9.73-.89-1.23-1.36-2.33-2.07-2.78-10.89-7.17-13.07-5.3-19.68,8.68-3.41,7.17-3.91,15.01-5.51,22.41-1.15,5.38.55,12.34,1.81,18.24,2.68,12.51,8.05,21.67,17.71,25.37Z"/>
  <path d="M66.31,133.41h0s-.01,0-.02,0h.03Z"/>
  <path d="M443.85,544.4c7.45-6.26-1.73-7.01-4.94-8.75-1.99-1.08-7.27-.71-8.78.66-3.99,3.65-5.61,1.24-8.89-.54-2.25-1.2-7.6-1.45-9.07-.21-5.49,4.68-10.14,4.89-15.3.08-6.08,6.34-11.13-2.41-17.88-.75-7.34,1.82-15.82.37-23.82.37-3.17,0-6.9.87-9.48-.17-14.12-5.72-27.58.62-40.93,1.95-7.67.74-14.05,3.73-21.39-.75-2.14-1.33-6.31-1.79-8.85-1.04-5.57,1.62-11.62,6.63-16.67,2.86-7.48-5.59-11.47,4.77-18.4,1.04-4.72-2.53-11.28-3.85-17-3.81-3.94.04-5.53-7.38-11.32-1.66-2.06,2.03-10.18,2.57-13.2.95-9.48-5.14-19.55-3.11-29.43-3.65-5.27-.29-10.33.66-15.34-3.11-4.61-3.44-7.89,1.95-11.28,4.19,6.41,5.81-6.38,12.07.29,17.33,5.02,3.94,2.92,8.29,3.36,12.56.52,4.93-1.92,10.45,4.72,13.97-5.93,3.77-6.82,8.2-3.5,12.39,12.28,1.82,23.49,4.85,34.7,4.93,67.07.58,134.18.46,201.26.58,1.38,0,2.87-.47,4.22-.73,3.17-.61,6.34-1.25,9.51-1.9,5.65-1.16,11.71-1.93,17.19-3.76,3.87-1.29,8.8-.59,12.9-.55.93.01,1.86.1,2.78-.1,1.39-.3,2.62-1.04,4.07-1.1,1.32-.05,2.96.44,4.14-.35,1.5-1,2.11-3.71,3.14-5.18,2.12-3.04,3.2-6.08,3.2-9.77,0-.67.05-1.36.01-2.03-.04-.81-.39-1.28-.54-2.03-.09-.45-.13-.91-.13-1.36l.02.02c-.02-.93.04-1.87-.14-2.79-.27-1.39-.34-2.66-.34-4.1,0-3.4.08-6.81.08-10.21,0-1.16.15-2.73,1.03-3.48Z"/>
  <path d="M640.19,121.07c.15.93.39,2.36-.03,2.8-5.38,5.73-.45,10.74.76,15.96.68,2.97,1.7,5.84,2.57,8.77v.02s-.06.07-.06.07c3.72,2.6,7.24-2.67,11.54.09,2.5,1.59,4.31,8.53,8.95,3.66-.16,2.32-.34,4.65-.55,7.52,1.82.99,4.54,2.53,7.22,4.03,2.33-2.84,4.33-5.24,6.27-7.58-.69-1.39-2.36-3.91-2.05-4.28,3.78-4.7.61-12.06,4.83-16.4-1.26-4.94,5.22-9.75.16-14.97-.66-.69-.27-4.41.6-5.14,7.03-5.78,3.14-15.59,6.45-22.84,1.05-2.27-1.91-6.64-1.99-10.1-.11-3.31,2.62-7.67,1.52-9.81-2.28-4.48-2.47-7.52.68-11.07.42-.49.45-2.36.08-2.69-3.54-3.17-2.65-5.93-.05-9.3.76-1.02.26-3.7-.13-5.49-2.73-12.59-2.81-13.14-.92-24.12.5-2.93-2.1-6.83-4.07-5.6-10.97,6.9-21.86,1.52-32.51-.44-11.28-2.07-11.49-2.76-11.54,9.72-.08,16.22-.05,32.47-.13,48.69-.02,3.27-.34,6.51-.52,9.77l-.1,10.12c.21,4.67.16,9.39.66,14.02.52,4.91,1.6,9.72,2.36,14.59Z"/>
  <path d="M185.47,679.91c7.85-5.06,15.54-2.78,23.24-3.19,10.67-.58,21.41.04,32.04-.46,4.72-.25,9.26-2.53,14.02-2.94,7.28-.62,14.67-.5,22.02-.5,7.12-.05,14.24,2.65,20.3,2.98,6.51.37,14.48-2.94,22.59-3.11,4.41-.08,8.88.18,13.35.37-.25.29-.53.58-.49.79.13.78.5,1.52.76,2.28.29-.37.55-.76.89-1.21h.01s-.03,0-.03,0c-.24-.59-.49-1.22-.73-1.84,9.82.42,19.62.47,28.72-4.04,22.78,2.82,44.57-4.93,67.24-3.85,7.09.33,14.25.08,23.66.08-3.23-5.43-6.05-8.5-6.93-11.9-2.17-8.45-2.93-17.16-5.33-25.57-.95-3.36-4.95-8.99-7.12-8.87-11.51.63-21.76-3.19-32.65-4.14-4.84-.46-12.46,4.6-14.82,3.15-7.65-4.69-10.09.2-15.12,2.4-4.5,1.9-13.33,3.4-15.81,1.49-9.87-7.54-22.82-1.57-34.02-6.71-8.65-3.94-22.52-1.08-34.06-.75-9.71.29-19.46,2.11-29.14,1.74-10.7-.42-20.26,2.52-30.32,4.14-6.97,1.12-14.63,2.44-21.26,1.2-4-.75-7.65-3.65-12.91-3.61-5.37.08-10.93,1.33-16.23-2.28-1.79-1.2-7.77,2.12-11.85,2.2-4.46.08-8.96-1.2-15.89-2.28l-.02.02v.12c-5.48,4.43-5.71,4.43-8.3,14.34-2.7,10.24-5.71,20.44-6.97,30.8-1.03,8.41,3.05,10.98,13.75,11.85,6.21.5,13.41-1.95,17.87,3.69,5.03,6.39,15.69,6.1,19.54,3.61ZM434.43,658.13c.42-.08,1.11.79,1.64,1.2-1.1.46-2.17.91-3.2,1.37h0v.04c-.65-.54-1.22-1-1.75-1.41,1.1-.41,2.13-.99,3.31-1.2Z"/>
  <path d="M437.4,529.59c-3.09-1.34-7.71-.08-11.33,3.46,3.94,0,7.9.26,11.81-.13,1.05-.1,1.99-2.12,2.99-3.25h-.01c-1.15,0-2.41.37-3.46-.08Z"/>
  <path d="M351.4,673.3h-13.93c4.64,2.13,9.42,4.2,13.93,0Z"/>
  <path d="M436.38,679.86c-1.16.24-2.1,2.07-3.15,3.2,1.26,1.44,2.52,2.86,4.49,5.09l.03-.03c1.28-2.23,2.68-3.54,2.78-5.01.31-4.48-2.42-3.62-4.15-3.25Z"/>
  <path d="M367.17,531.59c1.63-1.03,3.33-2.1,5.85-3.73-5.17-2.67-6.93-1.78-5.85,3.73Z"/>
  <rect x="60.43" y="823.98" width="4.93" height="1.71"/>
  <path d="M446.72,528.52s-.01,0-.02,0c0,0,.01.01.02.02v-.02Z"/>
  <path d="M443.78,526.39c-1.07.81-1.97,2.15-2.91,3.28,1.63-.31,3.22-.63,5.83-1.15-1.72-1.3-2.58-2.39-2.92-2.13Z"/>
  <rect x="450.76" y="527.13" width="4.93" height="1.71"/>
  <rect x="372.15" y="676.18" width="1.23" height="6.82"/>
  <path d="M320.1,673.9h-.01s.03,0,.03,0c.29.7.58,1.47.87,2.2.26-.4.81-.84.76-1.13-.13-.78-.5-1.52-.76-2.28-.29.37-.55.76-.89,1.21Z"/>
  <path d="M392.33,530.21c-.21-.05-.55.71-.81,1.08.54.4,1.07.81,1.58,1.2.34-.44.62-.83.88-1.2-.55-.4-1.07-.9-1.65-1.08Z"/>
  <path d="M393.12,532.5s-.01-.01-.02-.01c0,0,0,0-.01.01h.03Z"/>
  <path d="M587.83,676.03s-.01,0-.02-.01c0,0,0,0-.01.01h.03Z"/>
  <path d="M587.04,673.74c-.21-.05-.55.71-.81,1.08.54.4,1.07.81,1.58,1.2.34-.44.62-.83.88-1.2-.55-.4-1.07-.9-1.65-1.08Z"/>
  <path d="M382.65,679.62c.31-.76.6-1.49.89-2.2h.01c-.32-.45-.61-.84-.87-1.21-.29.76-.66,1.47-.79,2.28-.05.29.5.76.76,1.13Z"/>
  <path d="M401.5,681.85c.32.45.61.84.87,1.21.29-.76.66-1.47.79-2.28.05-.29-.5-.76-.76-1.13-.31.76-.6,1.49-.89,2.2h-.01Z"/>
  <path d="M407.76,682.43c.21.05.55-.71.81-1.08-.54-.4-1.07-.81-1.58-1.2-.33.44-.62.83-.88,1.2.55.4,1.07.9,1.65,1.08Z"/>
  <path d="M406.97,680.14s.01,0,.02.01c0,0,0,0,.01-.01h-.03Z"/>
  <path d="M524.18,681.06h.01c-.32-.45-.61-.84-.87-1.21-.29.76-.66,1.47-.79,2.28-.05.29.5.76.76,1.13.31-.76.6-1.49.89-2.2Z"/>
  <path d="M353.03,693.21c.31-.76.6-1.49.89-2.2h.01l-.87-1.21c-.29.76-.66,1.47-.79,2.28-.05.29.5.76.76,1.13Z"/>
  <path d="M467.55,528.59c-.13-.78-.5-1.52-.76-2.28-.29.37-.55.76-.89,1.21h-.01.03c.29.7.58,1.47.87,2.2.26-.4.81-.84.76-1.13Z"/>
  <path d="M356.52,528.41c-.13-.78-.5-1.52-.76-2.28-.26.4-.81.84-.76,1.13.13.78.5,1.52.76,2.28.26-.4.81-.84.76-1.13Z"/>
  <polygon points="297.92 534.81 297.92 534.82 297.93 534.81 297.92 534.81"/>
  <path d="M297.14,537.1c.57-.19,1.1-.71,1.65-1.08-.27-.37-.53-.76-.87-1.21-.52.4-1.08.79-1.59,1.21.29.4.6,1.13.81,1.08Z"/>
  <path d="M168.24,515.6c.31-.76.6-1.49.89-2.2h.01c-.32-.45-.61-.84-.87-1.21-.29.76-.66,1.47-.79,2.28-.05.29.5.76.76,1.13Z"/>
  <path d="M151.55,150.71c.31-.76.6-1.49.89-2.2h.01c-.32-.45-.61-.84-.87-1.21-.29.76-.66,1.47-.79,2.28-.05.29.5.76.76,1.13Z"/>
  <path d="M475.17,470.53h-.03c-.29-.7-.58-1.47-.87-2.2-.26.4-.81.84-.76,1.13.13.78.5,1.52.76,2.28.29-.37.55-.76.89-1.21h.01Z"/>
  <path d="M324.11,786.09c-.21-.05-.55.71-.81,1.08.54.4,1.07.81,1.58,1.2.33-.44.62-.83.88-1.2-.55-.4-1.07-.9-1.65-1.08Z"/>
  <path d="M324.9,788.38s-.01,0-.02-.01c0,0,0,0-.01.01h.03Z"/>
  <path d="M563.57,426.59c-.58-.39-1.24-1.2-1.66-1.12-1.15.2-2.23.73-3.35,1.12.54.42,1.11.81,1.77,1.31v-.04c1.04-.42,2.16-.85,3.24-1.27Z"/>
  <path d="M537.09,842.04c.13.78.5,1.52.76,2.28.29-.37.55-.76.89-1.21h-.02c-.29-.7-.58-1.47-.87-2.2-.26.4-.81.84-.76,1.13Z"/>
  <path d="M231.86,847.25c.31-.76.6-1.49.89-2.2h.01c-.32-.45-.61-.84-.87-1.21-.29.76-.66,1.47-.79,2.28-.05.29.5.76.76,1.13Z"/>
  <path d="M248.48,1000.1c.57-.19,1.1-.71,1.65-1.08-.27-.37-.53-.76-.87-1.21-.52.4-1.08.79-1.59,1.21.29.4.6,1.13.81,1.08Z"/>
  <polygon points="249.26 997.81 249.26 997.82 249.27 997.81 249.26 997.81"/>
  <path d="M168.61,23.95c.57-.19,1.1-.71,1.65-1.08-.27-.37-.53-.76-.87-1.21-.52.4-1.08.79-1.59,1.21.29.4.6,1.13.81,1.08Z"/>
  <polygon points="169.39 21.66 169.39 21.67 169.4 21.66 169.39 21.66"/>
  <polygon points="229.32 1134.16 229.32 1134.17 229.33 1134.16 229.32 1134.16"/>
  <path d="M228.54,1136.45c.57-.19,1.1-.71,1.65-1.08-.27-.37-.53-.76-.87-1.21-.52.4-1.08.79-1.59,1.21.29.4.6,1.13.81,1.08Z"/>
  <path d="M145.25,2.87h.01s-.03,0-.03,0c-.29-.7-.58-1.47-.87-2.2-.26.4-.81.84-.76,1.13.13.78.5,1.52.76,2.28.29-.37.55-.76.89-1.21Z"/>
  <path d="M160.2,1163.91c.5-3.25,2-7.71-.26-9.6-4.59-3.83-2.52-7.71-2.91-11.54-.47-4.48-.18-9-.21-13.51-8.42-2,2.57-6.98-2.78-9.45.81-7.55.78-7.53-6.17-11.91-1.68-1.05-3.78-2.2-4.41-3.59-3.23-7.11-11.55-10.26-19.76-13.17-13.07-4.61-27.4-6.21-41.67-7.5-5.01-.45-10.02-.45-13.51,3.28-.95,1.03-3.81,1.5-5.8,1.5-11.49,0-21.41,2.41-28.94,8.97-19.18,5.72-20.36,19.7-26.63,31.17-1.75,3.2,1.42,8.01-.73,10.84-2.44,3.23.24,6.38-2.49,9.63-2.25,2.7-.21,7.19-.6,10.86-.24,2.21-1.44,4.33-2.23,6.51,13.39,2.62,13.44,3.07,12.73,14.27-.26,4.18-2.78,8.98,2.99,12.65.57.34-.11,2.36-1,3.17-2.84,2.57,1.07,5.59-1.76,8.63-1.52,1.63,2.07,5.62,2.86,8.61.92,3.46,1.47,7,1.92,10.52.63,5.17,2.86,10.79.92,15.43-1.44,3.44-2.28,6.69-2.94,10.18-.63,3.39-2.59,6.67-3.17,10.08-.39,2.23.71,4.43,1.84,6.77,3.04,6.27,8.79,12.93,1.36,19.73,2.37,3.83-4.48,7.19-.31,11.65,3.1,3.28,2.28,8.42,5.09,11.94,9.18,11.52,23.58,19.02,39.51,25.29,7.24,2.84,15.4,2.68,22.83,4.78,6.19,1.73,12.75,5.74,19.39.39,8.08,5.17,13.57-1.1,19.26-2.99,7.27-2.39,14.51-6.19,13.62-13.59-.13-1.05.78-3.05,1.44-3.1,11.84-.92,8.4-9.06,11.6-13.7,1.78-2.57,3.6-4.91,6.35-6.64,4.38-2.73-5.46-5.36.31-7.77-6.21-2.8,4.04-5.8-.18-8.55-3.49-2.29-4.02-5.44-1.21-7.43,4.38-3.12-3.83-4.04-1.26-7.08,2.37-2.81.66-14.17-1.99-15.72-5.49-3.22-3.97-5.95-1.71-10.02,2.75-4.96,3.28-10.58,4.85-16.27l-.03-.03.11.03c2.31-1.02,5.46-1.76,5.46-2.52.08-3.83,4.06-7.66.26-11.49,5.25-5.87-1.1-11.75-.18-17.68.24-1.57-3.51-4.14-2.75-4.93,5.85-6.13,5.64-12.56,2.99-19.28,5.25-2.6-.52-5.17-.1-7.82Z"/>
  <path d="M167.53,1223.59c4.25.02,5.76-2.24,4.54-6.77-1.55,2.31-3.02,4.51-4.54,6.77Z"/>
  <path d="M174.24,1197.28v6.95c2.12-1.9,2.12-4.22,0-6.95Z"/>
  <path d="M173.41,1204.99c-2.12,1.9-2.12,4.22,0,6.95v-6.95Z"/>
  <path d="M19.34,1097.92h0c.45-.31.84-.6,1.21-.86-.76-.29-1.47-.66-2.28-.79-.29-.05-.76.5-1.13.76.76.31,1.49.6,2.2.89Z"/>
  <path d="M156.95,1092.3c-.4-.26-.84-.81-1.13-.76-.78.13-1.52.5-2.28.76.4.26.84.81,1.13.76.78-.13,1.52-.5,2.28-.76Z"/>
  <path d="M169.47,228.04c-.13-.78-.5-1.52-.76-2.28-.26.4-.81.84-.76,1.13.13.78.5,1.52.76,2.28.26-.4.81-.84.76-1.13Z"/>
  <path d="M325.77,1023.71c.24.34.53.99.71.94.53-.15.97-.6,1.47-.94-.24-.34-.53-.99-.71-.94-.53.15-.97.6-1.47.94Z"/>
  <path d="M13.25,1076.72l.02.02s-.02-.03-.02-.04c-.02.02-.03.03-.05.05l.05-.03Z"/>
  <path d="M66.5,974.58c-1.39-4.38.11-7.4.03-10.94-.11-4.35-2.28-8.63-3.36-12.25-16.95-.03-33.66-.05-50.43-.08-1.55,3.68-3.07,6.77-4.2,10.13-.66,1.86-.79,4.14-.92,6.27-.58,8.63-5.64,17.19-.34,25.95-4.62,5.67.26,12.57-.84,17.19-1.6,6.8-1.33,13.15-1.23,19.55.13,8.61,2,17.19,2.1,25.82.11,7.57,1.78,13.68,5.94,20.48,5.08-5.97,11.02-3.44,16.27-2.76,2.81.37,5.25,1.99,7.85-.5,3.02,5.35,6.01-.5,9.05-.08,3.25.42,6.61.58,9.84,0,8.6-1.57,12.07-8.92,8.84-20.33-1.2-4.3-.36-5.98,1.42-8.34-4.51-6.09-1.6-13.75-2.23-20.65-.65-7.14.53-13.91,2.26-20.78,1.02-4.07.21-9,.21-13.54.03-5.12,1.08-10.84-.26-15.14Z"/>
  <path d="M152.27,1016.79c1.31-5.64.31-12.34.31-18.58.03-3.38.26-6.85-.05-10.18-.23-2.54-.68-5.88-1.94-7.24-3.12-3.36-2.83-7.58-2.91-12.07-.13-7.06.68-14.25-.68-21.91-1.16,1.6-1.71,3.1-2.31,3.1-8.29.29-16.06,5.54-24.56,4.49-5.69-.7-11.46-.31-17.21-.1-5.04.19-6.77,2.94-6.98,10.29-.05,2.26,0,4.54,0,6.8-.03,7.37-.34,14.77.05,22.09.42,7.51,2.39,15.01,2.18,22.41-.47,16.49-1.88,32.92-2.96,49.99,4.61,1.91,6.94-1.75,10.79.16,5.14,2.54,11.52,1.44,17.37-2.34,4.44-2.86,9.48-5.09,14.88-3.83,4.48,1.05,9-3.52,13.3-.03,1.29-5.3,2.36-9.78,3.44-14.27-5.4-3.36,1.55-10.65-2.41-14.48,4.65-4.75-1.57-8.95-.31-14.3Z"/>
  <path d="M95.19,1065.89h.02s0,0,0-.01c-.02,0-.03-.01-.05-.02l.03.03Z"/>
  <path d="M210.63,1047.29c-.21-.05-.55.71-.81,1.08.54.4,1.07.81,1.58,1.2.33-.44.62-.83.88-1.2-.55-.4-1.07-.9-1.65-1.08Z"/>
  <path d="M211.42,1049.58s-.01,0-.02-.01c0,0,0,0-.01.01h.03Z"/>
  <path d="M72.86,1070.34c.26-.4.81-.84.76-1.13-.13-.78-.5-1.52-.76-2.28-.26.4-.81.84-.76,1.13.13.78.5,1.52.76,2.28Z"/>
  <path d="M207.67,1093.19h-.01c.32.45.61.84.87,1.21.29-.76.66-1.47.79-2.28.05-.29-.5-.76-.76-1.13-.31.76-.6,1.49-.89,2.2Z"/>
  <path d="M513.73,209.88c-.21-.05-.55.71-.81,1.08.54.4,1.07.81,1.58,1.2.34-.44.62-.83.88-1.2-.55-.4-1.07-.9-1.65-1.08Z"/>
  <path d="M514.52,212.17s-.01,0-.02-.01c0,0,0,0-.01.01h.03Z"/>
  <path d="M674.72,480.74c-1.5-2.11-4.31-3.4-6.72-4.6-7.74-3.85-16.45-3.97-24.58-6.38-1.34-.39-3.07.36-4.57.79-6.72,2.02-13.28,4.69-20.52,4.31-2.29-.11-4.67.54-6.93,1.13-7.3,1.91-14.28,7.27-22.2,1.5-.99-.71-3.59.83-5.4,1.48-8.15,2.96-15.64,2.4-22.46-1.68-1.63-.96-3.21-2.05-4.57-2.92-4.54,2.83-8.21,5.63-13.33,5.69-2.81.03-6.3,1.5-8.29,3.55-4.23,4.36-9.58,5.65-14.8,6.22-4.25.47-7.16,2.9-10.6,4.56-2.41,1.16-4.48,3.1-6.87,4.42-6.96,3.83-14.67,6.5-18.79,14.36-.39.73-1.1,1.7-1.73,1.76-5.96.51-6.32,6.55-9.34,9.95,2.34,6.04-5.64,7.72-5.06,13.27.71,6.51-3.28,11.73-6.74,16.19-2.67,3.46-2.94,6.58-3.12,10.33-.15,3.3.53,7.8-1.23,9.6-5.04,5.19-4.65,9.83-1.34,15.5,1.37,2.31,2.18,5.17,2.47,7.88,1,9.89,1,19.94,2.65,29.7,2.1,12.36,6.04,37.7,18.45,41.08,2.62-1.46,5.01-2.79,7.5-4.17,1.15,1.25,2.59,2.77,3.8,4.07l-.03.02.1-.04c8.95-2.93,16.67-6.95,25.35-1.82,2.28,1.35,4.98,2.29,7.58,2.53,4.48.42,9.05.14,13.56.14,4.09,0,8.98,1.44,12.15-.34,4.44-2.49,7.77-.14,11.6-.08,4.64.08,8.76.69,11.91,2.86,1.08.73,2.57,1.96,3.44,1.66,4.12-1.44,8.58-.73,12.59-.95,5.7-.29,11.21-1.81,16.01-3.67,3.6-1.39,6.85-1.82,10.29-1.82,1.71,0,3.49,1.46,5.12,2.45,2.34,1.44,2.89-2.59,5.96-1.62,2.44.77,5.56,1.66,8.47,1.6,3.47-.06,7.19.85,10-2.31,3.18,5.55,6.09-.38,9.16-.24,2.86.14,5.8-.29,8.61.14,2.28.38,3.72-4.3,6.95-.43,1.41,1.7,6.24.36,9.52.36,3.7.02,7.74.96,11.02-.26,3.3-1.24,4.7,2.33,8.29,1.64,3.72-.73,8.05-2.09,12.38-1.5,4.83.67,9.84.12,14.77.2,2,.04,5.23-.36,5.75.65,3.81,7.31,9.16,2.39,13.36,1.68,6.69-1.15,13.18-3.84,19.63-5.85,0-5.08,1.47-20.21-.34-23.96-2.3-4.8,1.63-8.08.45-12.21-2.6-9.08-3.1-18.74-12.99-24.23-4.83-2.68-7.95-8.9-11.49-13.8-.78-1.11-.78-3.76-.05-4.96,6.19-10.21.47-19.81-1.26-29.53-.63-3.43-2.31-6.69-3.75-9.91-1.45-3.24-2.47-7.42-4.99-9.22-4.48-3.18,2.05-5.9-.81-9.32-5.77-6.88-7.92-16.85-17.34-20.68-1.76-.71-2.18-4.52-3.96-5.67-6.37-4.13-10-12.17-19.31-12.64-4.17-.2-9.97-1.58-13.38-6.46Z"/>
  <path d="M653.65,931.63v-.04s.03.05.03.05c-1.23-5.48-2.23-8.1-2.36-10.78-.26-5.67.52-11.52-.21-17-.79-5.79-4.49-12.48-1.97-17.05,3.36-6.09-2.28-9.42-.47-14.67,1.78-5.25-2.96-12.02-1.81-15.22,2.31-6.48-1.34-9.21-2.02-13.62-.39-2.65-.79-5.35-.84-8.03-.1-5.69.03-11.36,0-17.05-.02-4.18-3.2-8.35.03-12.52-2.88-2.12-6.03-3.8-8.63-6.48-2.63-2.65-4.81-6.19-7.01-9.55-2.47-3.72-2.42-9.47-7.56-11.36-3.31-1.21-5.22-9-8.03-13.49-2.7-4.28-5.88-7.95-8.63-12.15-5.38-8.21-11.78-14.9-15.95-24.9-2.18-5.25-7.51-7.77-10.55-12.57-3.28-5.14-5.41-11.62-8.24-17.34-.87-1.73-2.39-4.01-3.62-4.04-5.93-.18-1.08-8.03-4.54-10.44-4.38,0-9.52,1.32-14.09-.39-4.59-1.7-8.03,7.87-13.09.71-2.31-3.31-7.43,4.17-11.26-.37-4.28,5.33-8.64-3.17-12.73.08-4.43,3.52-7.9-4.77-13.04-.68-3.18,2.52-8.21-6.3-13.12-1.39,3.26,3.57,8.66,6.56,9.24,10.84,1.11,8.03,7.06,10.39,8.19,17.29,1.26,7.77,6.42,11,9.73,16.14,5.09,7.93,8.68,17.82,16.03,23.25,6.06,4.49,6.29,6.37,9.52,16.24.78,2.36,1.34,5.85,2.7,6.69,6.83,4.25,8.95,14.51,14.33,20.52,1.6,1.81,2.31,5.19,3.94,6.9,5.07,5.33,8.87,11.94,12.94,18.66,4.3,7.14,6.27,18.18,14.19,20.91.97.31,2.23,2.28,2.31,3.62.34,5.93,3.83,10.05,6.51,11.26,5.64,2.55,5.85,11.55,11.49,14.54,4.9,2.63,8.11,10.87,12.54,15.8,5.38,6.01,10.52,13.36,18.97,10.97-1.39,3.39-2.26,5.57-3.28,8.06,2.23,1.47,3.91,2.6,5.98,3.96v9.76c4.8,4.96,8.77,9.06,14.38,14.88Z"/>
</svg>